# xmcd
#
# Track frame offsets:
#	150
#	17976
#	41432
#	74761
#	112169
#	143682
#	161472
#	193436
#	222233
#	247282
#
# Disc length: 4159 seconds
#
# Revision: 2
# Processed by: cddbd v1.4PL0 Copyright (c) Steve Scherf et al.
# Submitted via: audiograbber 1.81.03
#
DISCID=a1103d0a
DTITLE=The Hoax - Live Forever
DYEAR=1999
DGENRE=Blues
TTITLE0=Twenty Ton Weight
TTITLE1=Fistful Of Dirt
TTITLE2=Groove Breaker
TTITLE3=Scratch My Back
TTITLE4=Feeding Time
TTITLE5=High Expectations
TTITLE6=Hungry Mans Blues
TTITLE7=Driving Blind
TTITLE8=I Want To Be Loved
TTITLE9=Bones
EXTD=
EXTT0=
EXTT1=
EXTT2=
EXTT3=
EXTT4=
EXTT5=
EXTT6=
EXTT7=
EXTT8=
EXTT9=
PLAYORDER=
